<svg xmlns="http://www.w3.org/2000/svg" viewBox="0 0 16.156 24.25"><path d="M3.887.019a1.507 1.507 0 01.274.273l.657.644c.456.436.913.866 1.369 1.3q.3.321.6.65Q9.06 5.093 11.332 7.31q.959.969 1.917 1.94 1.1 1.056 2.19 2.107v.053c.185.181.369.35.548.541a.283.283 0 01.164.159q-1.587 1.543-3.176 3.079-3.148 3.125-6.3 6.259c-.055.019-.11.035-.164.055-.6.61-1.2 1.225-1.807 1.831l-.658.652a1.308 1.308 0 00-.273.268h-.055v-.053a2 2 0 01-.383-.38c-.293-.285-.585-.576-.877-.862l-.328-.27-1.369-1.406a4.371 4.371 0 01-.767-.752 3.7 3.7 0 00.657-.648q.548-.514 1.1-1.026c.091-.11.182-.217.273-.323 1.041-1.011 2.081-2.014 3.122-3.025.419-.428.839-.865 1.259-1.292.511-.485 1.022-.976 1.533-1.459v-.054a2.169 2.169 0 00.658-.7c-.165-.145-.329-.288-.493-.437a.831.831 0 01-.055-.108A13.637 13.637 0 016.46 9.953L3.393 6.984l-1.259-1.3c-.493-.482-.986-.97-1.479-1.456a1.464 1.464 0 01-.492-.538l.985-.916Q2.519 1.392 3.887.019z" fill="#fff" fill-rule="evenodd"/></svg>