<svg xmlns="http://www.w3.org/2000/svg" viewBox="0 0 24 37"><path d="M5.78 0a1.944 1.944 0 01.4.41c.33.33.65.66.98.99.68.66 1.36 1.32 2.03 1.98l.9.99 6.75 6.75 2.85 2.97c1.08 1.07 2.17 2.14 3.25 3.21v.09c.28.28.55.53.82.82a.422.422 0 01.24.25c-1.57 1.56-3.15 3.13-4.72 4.7q-4.68 4.77-9.35 9.55c-.09.03-.17.06-.25.09-.89.93-1.79 1.86-2.68 2.8-.33.33-.65.66-.98.99a1.991 1.991 0 00-.41.41h-.08v-.08a3.479 3.479 0 01-.57-.58c-.43-.44-.87-.88-1.3-1.32-.16-.14-.32-.27-.49-.41-.68-.71-1.35-1.43-2.03-2.14A6.585 6.585 0 010 31.31a5.742 5.742 0 00.98-.99l1.62-1.56.41-.5c1.55-1.53 3.09-3.07 4.64-4.61.62-.66 1.24-1.32 1.87-1.98l2.28-2.22v-.09a3.109 3.109 0 00.97-1.07c-.24-.22-.49-.44-.73-.66-.03-.05-.05-.11-.08-.16a20.589 20.589 0 01-2.36-2.31l-4.56-4.53c-.62-.66-1.24-1.32-1.87-1.98L.98 6.43a2.319 2.319 0 01-.74-.83c.49-.46.98-.93 1.47-1.4Q3.735 2.1 5.78 0z" fill="#ccc" fill-rule="evenodd"/></svg>